<svg viewBox="-77 -73 153 134" xmlns="http://www.w3.org/2000/svg"><defs><filter id="sp-carehouse-blur" x="-50%" y="-50%" width="200%" height="200%"><feGaussianBlur stdDeviation="3.6"/></filter><filter id="sp-carehouse-glow" x="-50%" y="-50%" width="200%" height="200%"><feGaussianBlur stdDeviation="8.0"/></filter><radialGradient id="sp-carehouse-g1" cx="0.35" cy="0.3" r="0.8"><stop offset="0" stop-color="#97ca7f"/><stop offset="0.55" stop-color="#5fae3a"/><stop offset="1" stop-color="#396823"/></radialGradient><radialGradient id="sp-carehouse-g2" cx="0.35" cy="0.3" r="0.8"><stop offset="0" stop-color="#d1b7ea"/><stop offset="0.55" stop-color="#a36fd6"/><stop offset="1" stop-color="#624380"/></radialGradient><radialGradient id="sp-carehouse-g3" cx="0.35" cy="0.3" r="0.8"><stop offset="0" stop-color="#97ca7f"/><stop offset="0.55" stop-color="#5fae3a"/><stop offset="1" stop-color="#396823"/></radialGradient><radialGradient id="sp-carehouse-g4" cx="0.35" cy="0.3" r="0.8"><stop offset="0" stop-color="#d1b7ea"/><stop offset="0.55" stop-color="#a36fd6"/><stop offset="1" stop-color="#624380"/></radialGradient><radialGradient id="sp-carehouse-g5" cx="0.35" cy="0.3" r="0.8"><stop offset="0" stop-color="#97ca7f"/><stop offset="0.55" stop-color="#5fae3a"/><stop offset="1" stop-color="#396823"/></radialGradient><radialGradient id="sp-carehouse-g6" cx="0.35" cy="0.3" r="0.8"><stop offset="0" stop-color="#d1b7ea"/><stop offset="0.55" stop-color="#a36fd6"/><stop offset="1" stop-color="#624380"/></radialGradient><radialGradient id="sp-carehouse-g7" cx="0.35" cy="0.3" r="0.8"><stop offset="0" stop-color="#97ca7f"/><stop offset="0.55" stop-color="#5fae3a"/><stop offset="1" stop-color="#396823"/></radialGradient><radialGradient id="sp-carehouse-g8" cx="0.35" cy="0.3" r="0.8"><stop offset="0" stop-color="#d1b7ea"/><stop offset="0.55" stop-color="#a36fd6"/><stop offset="1" stop-color="#624380"/></radialGradient><radialGradient id="sp-carehouse-g9" cx="0.35" cy="0.3" r="0.8"><stop offset="0" stop-color="#97ca7f"/><stop offset="0.55" stop-color="#5fae3a"/><stop offset="1" stop-color="#396823"/></radialGradient><radialGradient id="sp-carehouse-g10" cx="0.35" cy="0.3" r="0.8"><stop offset="0" stop-color="#d1b7ea"/><stop offset="0.55" stop-color="#a36fd6"/><stop offset="1" stop-color="#624380"/></radialGradient><radialGradient id="sp-carehouse-g11" cx="0.35" cy="0.3" r="0.8"><stop offset="0" stop-color="#97ca7f"/><stop offset="0.55" stop-color="#5fae3a"/><stop offset="1" stop-color="#396823"/></radialGradient><radialGradient id="sp-carehouse-g12" cx="0.35" cy="0.3" r="0.8"><stop offset="0" stop-color="#d1b7ea"/><stop offset="0.55" stop-color="#a36fd6"/><stop offset="1" stop-color="#624380"/></radialGradient></defs><polygon points="49.6,50.8 40.9,54.2 30.6,56.5 19.2,57.6 7.0,57.6 -5.4,56.3 -17.7,53.8 -29.2,50.3 -39.7,45.8 -48.6,40.6 -55.6,34.8 -60.5,28.7 -63.1,22.5 -63.3,16.4 -61.0,10.7 -56.4,5.5 -49.6,1.2 -40.9,-2.2 -30.6,-4.5 -19.2,-5.6 -7.0,-5.6 5.4,-4.3 17.7,-1.8 29.2,1.7 39.7,6.2 48.6,11.4 55.6,17.2 60.5,23.3 63.1,29.5 63.3,35.6 61.0,41.3 56.4,46.5" fill="#1d2a10" opacity="0.3" filter="url(#sp-carehouse-blur)"/><polygon points="-72.0,16.0 8.0,56.0 8.0,48.8 -72.0,8.8" fill="#b3aa9b" stroke="#625e55" stroke-width="1.00" stroke-linejoin="round"/><polygon points="8.0,56.0 72.0,24.0 72.0,16.8 8.0,48.8" fill="#817a70" stroke="#47433e" stroke-width="1.00" stroke-linejoin="round"/><polygon points="-8.0,-23.2 72.0,16.8 8.0,48.8 -72.0,8.8" fill="#c2bbaf" stroke="#6b6760" stroke-width="1.00" stroke-linejoin="round"/><line x1="-72.0" y1="12.4" x2="8.0" y2="52.4" stroke="#625e55" stroke-width="0.80" stroke-linecap="round" opacity="0.55"/><line x1="-56.0" y1="24.0" x2="-56.0" y2="20.4" stroke="#625e55" stroke-width="0.80" stroke-linecap="round" opacity="0.55"/><line x1="-40.0" y1="32.0" x2="-40.0" y2="28.4" stroke="#625e55" stroke-width="0.80" stroke-linecap="round" opacity="0.55"/><line x1="-24.0" y1="40.0" x2="-24.0" y2="36.4" stroke="#625e55" stroke-width="0.80" stroke-linecap="round" opacity="0.55"/><line x1="-8.0" y1="48.0" x2="-8.0" y2="44.4" stroke="#625e55" stroke-width="0.80" stroke-linecap="round" opacity="0.55"/><line x1="-64.0" y1="16.4" x2="-64.0" y2="12.8" stroke="#625e55" stroke-width="0.80" stroke-linecap="round" opacity="0.55"/><line x1="-48.0" y1="24.4" x2="-48.0" y2="20.8" stroke="#625e55" stroke-width="0.80" stroke-linecap="round" opacity="0.55"/><line x1="-32.0" y1="32.4" x2="-32.0" y2="28.8" stroke="#625e55" stroke-width="0.80" stroke-linecap="round" opacity="0.55"/><line x1="-16.0" y1="40.4" x2="-16.0" y2="36.8" stroke="#625e55" stroke-width="0.80" stroke-linecap="round" opacity="0.55"/><line x1="0.0" y1="48.4" x2="0.0" y2="44.8" stroke="#625e55" stroke-width="0.80" stroke-linecap="round" opacity="0.55"/><line x1="8.0" y1="52.4" x2="72.0" y2="20.4" stroke="#625e55" stroke-width="0.80" stroke-linecap="round" opacity="0.55"/><line x1="24.0" y1="48.0" x2="24.0" y2="44.4" stroke="#625e55" stroke-width="0.80" stroke-linecap="round" opacity="0.55"/><line x1="40.0" y1="40.0" x2="40.0" y2="36.4" stroke="#625e55" stroke-width="0.80" stroke-linecap="round" opacity="0.55"/><line x1="56.0" y1="32.0" x2="56.0" y2="28.4" stroke="#625e55" stroke-width="0.80" stroke-linecap="round" opacity="0.55"/><line x1="16.0" y1="48.4" x2="16.0" y2="44.8" stroke="#625e55" stroke-width="0.80" stroke-linecap="round" opacity="0.55"/><line x1="32.0" y1="40.4" x2="32.0" y2="36.8" stroke="#625e55" stroke-width="0.80" stroke-linecap="round" opacity="0.55"/><line x1="48.0" y1="32.4" x2="48.0" y2="28.8" stroke="#625e55" stroke-width="0.80" stroke-linecap="round" opacity="0.55"/><line x1="64.0" y1="24.4" x2="64.0" y2="20.8" stroke="#625e55" stroke-width="0.80" stroke-linecap="round" opacity="0.55"/><line x1="-72.0" y1="8.8" x2="8.0" y2="48.8" stroke="#d5d0c8" stroke-width="1.20" stroke-linecap="round" opacity="0.8"/><polygon points="-60.0,7.6 0.0,37.6 0.0,6.4 -60.0,-23.6" fill="#f7f1e3" stroke="#88857d" stroke-width="1.00" stroke-linejoin="round"/><polygon points="0.0,37.6 52.0,11.6 52.0,-19.6 0.0,6.4" fill="#b2aea3" stroke="#62605a" stroke-width="1.00" stroke-linejoin="round"/><polygon points="-8.0,-49.6 52.0,-19.6 0.0,6.4 -60.0,-23.6" fill="#f9f4e9" stroke="#898680" stroke-width="1.00" stroke-linejoin="round"/><line x1="-58.8" y1="8.2" x2="-58.8" y2="-23.0" stroke="#8a5a32" stroke-width="2.60" stroke-linecap="round" opacity="1.0"/><line x1="-1.2" y1="37.0" x2="-1.2" y2="5.8" stroke="#8a5a32" stroke-width="2.60" stroke-linecap="round" opacity="1.0"/><polygon points="-39.0,18.1 -22.8,26.2 -22.8,0.6 -27.7,-4.7 -30.9,-8.2 -34.1,-7.9 -39.0,-7.5" fill="#8a5a32" stroke="#452d19" stroke-width="3.20" stroke-linejoin="round"/><polygon points="-39.0,18.1 -22.8,26.2 -22.8,0.6 -27.7,-4.7 -30.9,-8.2 -34.1,-7.9 -39.0,-7.5" fill="#3e6b88"/><polygon points="-16.8,16.7 -4.8,22.7 -4.8,11.8 -16.8,5.8" fill="#fff1c4" stroke="#6b4426" stroke-width="3.00" stroke-linejoin="round"/><line x1="-10.8" y1="19.7" x2="-10.8" y2="8.8" stroke="#6b4426" stroke-width="1.60" stroke-linecap="round" opacity="1.0"/><line x1="-16.8" y1="11.3" x2="-4.8" y2="17.3" stroke="#6b4426" stroke-width="1.60" stroke-linecap="round" opacity="1.0"/><polygon points="18.2,16.0 33.8,8.2 33.8,-2.7 18.2,5.1" fill="#fff1c4" stroke="#6b4426" stroke-width="3.00" stroke-linejoin="round"/><line x1="26.0" y1="12.1" x2="26.0" y2="1.2" stroke="#6b4426" stroke-width="1.60" stroke-linecap="round" opacity="1.0"/><line x1="18.2" y1="10.6" x2="33.8" y2="2.8" stroke="#6b4426" stroke-width="1.60" stroke-linecap="round" opacity="1.0"/><polygon points="-8.0,-56.0 64.8,-19.6 32.4,-32.2 -40.4,-68.6" fill="#437aa2" stroke="#254359" stroke-width="1.00" stroke-linejoin="round"/><polygon points="52.0,-19.6 0.0,6.4 26.0,-35.4" fill="#c1bcb1" stroke="#6a6761" stroke-width="1.00" stroke-linejoin="round"/><polygon points="64.8,-19.6 32.4,-32.2 0.0,12.8 0.0,16.8 32.4,-27.0 64.8,-15.6" fill="#2b4f69" stroke="#182b3a" stroke-width="1.00" stroke-linejoin="round"/><polygon points="-72.8,-23.6 0.0,12.8 32.4,-32.2 -40.4,-68.6" fill="#4f8fbf" stroke="#2b4f69" stroke-width="1.00" stroke-linejoin="round"/><polygon points="-72.8,-23.6 0.0,12.8 0.0,16.8 -72.8,-19.6" fill="#335d7c" stroke="#1c3344" stroke-width="1.00" stroke-linejoin="round"/><line x1="-66.3" y1="-32.6" x2="6.5" y2="3.8" stroke="#2f5673" stroke-width="0.80" stroke-linecap="round" opacity="0.45"/><line x1="-59.8" y1="-41.6" x2="13.0" y2="-5.2" stroke="#2f5673" stroke-width="0.80" stroke-linecap="round" opacity="0.45"/><line x1="-53.4" y1="-50.6" x2="19.4" y2="-14.2" stroke="#2f5673" stroke-width="0.80" stroke-linecap="round" opacity="0.45"/><line x1="-46.9" y1="-59.6" x2="25.9" y2="-23.2" stroke="#2f5673" stroke-width="0.80" stroke-linecap="round" opacity="0.45"/><line x1="-66.2" y1="-20.3" x2="-59.7" y2="-29.3" stroke="#2f5673" stroke-width="0.80" stroke-linecap="round" opacity="0.45"/><line x1="-59.6" y1="-17.0" x2="-53.1" y2="-26.0" stroke="#2f5673" stroke-width="0.80" stroke-linecap="round" opacity="0.45"/><line x1="-52.9" y1="-13.7" x2="-46.5" y2="-22.7" stroke="#2f5673" stroke-width="0.80" stroke-linecap="round" opacity="0.45"/><line x1="-46.3" y1="-10.4" x2="-39.8" y2="-19.4" stroke="#2f5673" stroke-width="0.80" stroke-linecap="round" opacity="0.45"/><line x1="-39.7" y1="-7.1" x2="-33.2" y2="-16.1" stroke="#2f5673" stroke-width="0.80" stroke-linecap="round" opacity="0.45"/><line x1="-33.1" y1="-3.7" x2="-26.6" y2="-12.7" stroke="#2f5673" stroke-width="0.80" stroke-linecap="round" opacity="0.45"/><line x1="-26.5" y1="-0.4" x2="-20.0" y2="-9.4" stroke="#2f5673" stroke-width="0.80" stroke-linecap="round" opacity="0.45"/><line x1="-19.9" y1="2.9" x2="-13.4" y2="-6.1" stroke="#2f5673" stroke-width="0.80" stroke-linecap="round" opacity="0.45"/><line x1="-13.2" y1="6.2" x2="-6.8" y2="-2.8" stroke="#2f5673" stroke-width="0.80" stroke-linecap="round" opacity="0.45"/><line x1="-6.6" y1="9.5" x2="-0.1" y2="0.5" stroke="#2f5673" stroke-width="0.80" stroke-linecap="round" opacity="0.45"/><line x1="-63.0" y1="-30.9" x2="-56.5" y2="-39.9" stroke="#2f5673" stroke-width="0.80" stroke-linecap="round" opacity="0.45"/><line x1="-56.4" y1="-27.6" x2="-49.9" y2="-36.6" stroke="#2f5673" stroke-width="0.80" stroke-linecap="round" opacity="0.45"/><line x1="-49.8" y1="-24.3" x2="-43.3" y2="-33.3" stroke="#2f5673" stroke-width="0.80" stroke-linecap="round" opacity="0.45"/><line x1="-43.2" y1="-21.0" x2="-36.7" y2="-30.0" stroke="#2f5673" stroke-width="0.80" stroke-linecap="round" opacity="0.45"/><line x1="-36.5" y1="-17.7" x2="-30.1" y2="-26.7" stroke="#2f5673" stroke-width="0.80" stroke-linecap="round" opacity="0.45"/><line x1="-29.9" y1="-14.4" x2="-23.4" y2="-23.4" stroke="#2f5673" stroke-width="0.80" stroke-linecap="round" opacity="0.45"/><line x1="-23.3" y1="-11.1" x2="-16.8" y2="-20.1" stroke="#2f5673" stroke-width="0.80" stroke-linecap="round" opacity="0.45"/><line x1="-16.7" y1="-7.8" x2="-10.2" y2="-16.8" stroke="#2f5673" stroke-width="0.80" stroke-linecap="round" opacity="0.45"/><line x1="-10.1" y1="-4.5" x2="-3.6" y2="-13.5" stroke="#2f5673" stroke-width="0.80" stroke-linecap="round" opacity="0.45"/><line x1="-3.4" y1="-1.2" x2="3.0" y2="-10.2" stroke="#2f5673" stroke-width="0.80" stroke-linecap="round" opacity="0.45"/><line x1="3.2" y1="2.1" x2="9.7" y2="-6.9" stroke="#2f5673" stroke-width="0.80" stroke-linecap="round" opacity="0.45"/><line x1="-53.2" y1="-38.3" x2="-46.7" y2="-47.3" stroke="#2f5673" stroke-width="0.80" stroke-linecap="round" opacity="0.45"/><line x1="-46.6" y1="-35.0" x2="-40.1" y2="-44.0" stroke="#2f5673" stroke-width="0.80" stroke-linecap="round" opacity="0.45"/><line x1="-40.0" y1="-31.7" x2="-33.5" y2="-40.7" stroke="#2f5673" stroke-width="0.80" stroke-linecap="round" opacity="0.45"/><line x1="-33.4" y1="-28.4" x2="-26.9" y2="-37.4" stroke="#2f5673" stroke-width="0.80" stroke-linecap="round" opacity="0.45"/><line x1="-26.7" y1="-25.1" x2="-20.3" y2="-34.1" stroke="#2f5673" stroke-width="0.80" stroke-linecap="round" opacity="0.45"/><line x1="-20.1" y1="-21.7" x2="-13.7" y2="-30.7" stroke="#2f5673" stroke-width="0.80" stroke-linecap="round" opacity="0.45"/><line x1="-13.5" y1="-18.4" x2="-7.0" y2="-27.4" stroke="#2f5673" stroke-width="0.80" stroke-linecap="round" opacity="0.45"/><line x1="-6.9" y1="-15.1" x2="-0.4" y2="-24.1" stroke="#2f5673" stroke-width="0.80" stroke-linecap="round" opacity="0.45"/><line x1="-0.3" y1="-11.8" x2="6.2" y2="-20.8" stroke="#2f5673" stroke-width="0.80" stroke-linecap="round" opacity="0.45"/><line x1="6.3" y1="-8.5" x2="12.8" y2="-17.5" stroke="#2f5673" stroke-width="0.80" stroke-linecap="round" opacity="0.45"/><line x1="-50.1" y1="-48.9" x2="-43.6" y2="-57.9" stroke="#2f5673" stroke-width="0.80" stroke-linecap="round" opacity="0.45"/><line x1="-43.4" y1="-45.6" x2="-37.0" y2="-54.6" stroke="#2f5673" stroke-width="0.80" stroke-linecap="round" opacity="0.45"/><line x1="-36.8" y1="-42.3" x2="-30.3" y2="-51.3" stroke="#2f5673" stroke-width="0.80" stroke-linecap="round" opacity="0.45"/><line x1="-30.2" y1="-39.0" x2="-23.7" y2="-48.0" stroke="#2f5673" stroke-width="0.80" stroke-linecap="round" opacity="0.45"/><line x1="-23.6" y1="-35.7" x2="-17.1" y2="-44.7" stroke="#2f5673" stroke-width="0.80" stroke-linecap="round" opacity="0.45"/><line x1="-17.0" y1="-32.4" x2="-10.5" y2="-41.4" stroke="#2f5673" stroke-width="0.80" stroke-linecap="round" opacity="0.45"/><line x1="-10.3" y1="-29.1" x2="-3.9" y2="-38.1" stroke="#2f5673" stroke-width="0.80" stroke-linecap="round" opacity="0.45"/><line x1="-3.7" y1="-25.8" x2="2.8" y2="-34.8" stroke="#2f5673" stroke-width="0.80" stroke-linecap="round" opacity="0.45"/><line x1="2.9" y1="-22.5" x2="9.4" y2="-31.5" stroke="#2f5673" stroke-width="0.80" stroke-linecap="round" opacity="0.45"/><line x1="9.5" y1="-19.2" x2="16.0" y2="-28.2" stroke="#2f5673" stroke-width="0.80" stroke-linecap="round" opacity="0.45"/><line x1="16.1" y1="-15.9" x2="22.6" y2="-24.9" stroke="#2f5673" stroke-width="0.80" stroke-linecap="round" opacity="0.45"/><line x1="-40.3" y1="-56.3" x2="-33.8" y2="-65.3" stroke="#2f5673" stroke-width="0.80" stroke-linecap="round" opacity="0.45"/><line x1="-33.6" y1="-53.0" x2="-27.2" y2="-62.0" stroke="#2f5673" stroke-width="0.80" stroke-linecap="round" opacity="0.45"/><line x1="-27.0" y1="-49.7" x2="-20.5" y2="-58.7" stroke="#2f5673" stroke-width="0.80" stroke-linecap="round" opacity="0.45"/><line x1="-20.4" y1="-46.4" x2="-13.9" y2="-55.4" stroke="#2f5673" stroke-width="0.80" stroke-linecap="round" opacity="0.45"/><line x1="-13.8" y1="-43.1" x2="-7.3" y2="-52.1" stroke="#2f5673" stroke-width="0.80" stroke-linecap="round" opacity="0.45"/><line x1="-7.2" y1="-39.7" x2="-0.7" y2="-48.7" stroke="#2f5673" stroke-width="0.80" stroke-linecap="round" opacity="0.45"/><line x1="-0.6" y1="-36.4" x2="5.9" y2="-45.4" stroke="#2f5673" stroke-width="0.80" stroke-linecap="round" opacity="0.45"/><line x1="6.1" y1="-33.1" x2="12.5" y2="-42.1" stroke="#2f5673" stroke-width="0.80" stroke-linecap="round" opacity="0.45"/><line x1="12.7" y1="-29.8" x2="19.2" y2="-38.8" stroke="#2f5673" stroke-width="0.80" stroke-linecap="round" opacity="0.45"/><line x1="19.3" y1="-26.5" x2="25.8" y2="-35.5" stroke="#2f5673" stroke-width="0.80" stroke-linecap="round" opacity="0.45"/><line x1="-40.4" y1="-68.6" x2="32.4" y2="-32.2" stroke="#8db6d5" stroke-width="2.20" stroke-linecap="round" opacity="0.9"/><circle cx="26.8" cy="-19.0" r="5.2" fill="#fbf2df" stroke="#8a5a32" stroke-width="1.60" opacity="1.0"/><path d="M22.8,-16.0 Q22.8,-24.0 30.8,-23.0 Q30.8,-15.0 22.8,-16.0Z" fill="#4f9e36" stroke="#2e6b1f" stroke-width="0.80" stroke-linecap="round" stroke-linejoin="round" opacity="1.0"/><polygon points="34.8,31.4 46.8,37.4 46.8,30.2 34.8,24.2" fill="#a0643a" stroke="#583720" stroke-width="1.00" stroke-linejoin="round"/><polygon points="46.8,37.4 64.8,28.4 64.8,21.2 46.8,30.2" fill="#73482a" stroke="#3f2817" stroke-width="1.00" stroke-linejoin="round"/><polygon points="52.8,15.2 64.8,21.2 46.8,30.2 34.8,24.2" fill="#b38361" stroke="#624835" stroke-width="1.00" stroke-linejoin="round"/><line x1="34.8" y1="27.8" x2="46.8" y2="33.8" stroke="#583720" stroke-width="0.80" stroke-linecap="round" opacity="0.5"/><line x1="46.8" y1="33.8" x2="64.8" y2="24.8" stroke="#583720" stroke-width="0.80" stroke-linecap="round" opacity="0.5"/><circle cx="55.6" cy="15.0" r="3.2" fill="url(#sp-carehouse-g1)" stroke="#30571d" stroke-width="1.00" opacity="1.0"/><circle cx="53.6" cy="11.6" r="1.2" fill="url(#sp-carehouse-g2)" stroke="#52386b" stroke-width="1.00" opacity="1.0"/><circle cx="49.6" cy="18.0" r="3.2" fill="url(#sp-carehouse-g3)" stroke="#30571d" stroke-width="1.00" opacity="1.0"/><circle cx="47.6" cy="14.6" r="1.2" fill="url(#sp-carehouse-g4)" stroke="#52386b" stroke-width="1.00" opacity="1.0"/><circle cx="43.6" cy="21.0" r="3.2" fill="url(#sp-carehouse-g5)" stroke="#30571d" stroke-width="1.00" opacity="1.0"/><circle cx="41.6" cy="17.6" r="1.2" fill="url(#sp-carehouse-g6)" stroke="#52386b" stroke-width="1.00" opacity="1.0"/><polygon points="12.8,42.4 24.8,48.4 24.8,41.2 12.8,35.2" fill="#a0643a" stroke="#583720" stroke-width="1.00" stroke-linejoin="round"/><polygon points="24.8,48.4 42.8,39.4 42.8,32.2 24.8,41.2" fill="#73482a" stroke="#3f2817" stroke-width="1.00" stroke-linejoin="round"/><polygon points="30.8,26.2 42.8,32.2 24.8,41.2 12.8,35.2" fill="#b38361" stroke="#624835" stroke-width="1.00" stroke-linejoin="round"/><line x1="12.8" y1="38.8" x2="24.8" y2="44.8" stroke="#583720" stroke-width="0.80" stroke-linecap="round" opacity="0.5"/><line x1="24.8" y1="44.8" x2="42.8" y2="35.8" stroke="#583720" stroke-width="0.80" stroke-linecap="round" opacity="0.5"/><circle cx="33.6" cy="26.0" r="3.2" fill="url(#sp-carehouse-g7)" stroke="#30571d" stroke-width="1.00" opacity="1.0"/><circle cx="31.6" cy="22.6" r="1.2" fill="url(#sp-carehouse-g8)" stroke="#52386b" stroke-width="1.00" opacity="1.0"/><circle cx="27.6" cy="29.0" r="3.2" fill="url(#sp-carehouse-g9)" stroke="#30571d" stroke-width="1.00" opacity="1.0"/><circle cx="25.6" cy="25.6" r="1.2" fill="url(#sp-carehouse-g10)" stroke="#52386b" stroke-width="1.00" opacity="1.0"/><circle cx="21.6" cy="32.0" r="3.2" fill="url(#sp-carehouse-g11)" stroke="#30571d" stroke-width="1.00" opacity="1.0"/><circle cx="19.6" cy="28.6" r="1.2" fill="url(#sp-carehouse-g12)" stroke="#52386b" stroke-width="1.00" opacity="1.0"/><polygon points="-65.2,24.6 -41.2,36.6 -41.2,28.6 -65.2,16.6" fill="#cf9a5e" stroke="#725534" stroke-width="1.00" stroke-linejoin="round"/><polygon points="-41.2,36.6 -34.0,33.0 -34.0,25.0 -41.2,28.6" fill="#956f44" stroke="#523d25" stroke-width="1.00" stroke-linejoin="round"/><polygon points="-58.0,13.0 -34.0,25.0 -41.2,28.6 -65.2,16.6" fill="#d9ae7e" stroke="#776045" stroke-width="1.00" stroke-linejoin="round"/></svg>