<svg viewBox="-79 -43 147 101" xmlns="http://www.w3.org/2000/svg"><defs><filter id="sp-construction-blur" x="-50%" y="-50%" width="200%" height="200%"><feGaussianBlur stdDeviation="3.6"/></filter><filter id="sp-construction-glow" x="-50%" y="-50%" width="200%" height="200%"><feGaussianBlur stdDeviation="8.0"/></filter><linearGradient id="sp-construction-g1" x1="0" y1="0" x2="0" y2="1"><stop offset="0" stop-color="#b88b6b"/><stop offset="1" stop-color="#684126"/></linearGradient><linearGradient id="sp-construction-g2" x1="0" y1="0" x2="0" y2="1"><stop offset="0" stop-color="#b88b6b"/><stop offset="1" stop-color="#684126"/></linearGradient></defs><polygon points="44.6,48.3 37.0,51.3 28.0,53.3 17.8,54.2 7.0,54.1 -4.1,52.8 -15.0,50.6 -25.3,47.4 -34.7,43.4 -42.8,38.7 -49.2,33.5 -53.7,28.0 -56.1,22.5 -56.4,17.1 -54.5,12.0 -50.6,7.5 -44.6,3.7 -37.0,0.7 -28.0,-1.3 -17.8,-2.2 -7.0,-2.1 4.1,-0.8 15.0,1.4 25.3,4.6 34.7,8.6 42.8,13.3 49.2,18.5 53.7,24.0 56.1,29.5 56.4,34.9 54.5,40.0 50.6,44.5" fill="#1d2a10" opacity="0.3" filter="url(#sp-construction-blur)"/><polygon points="-64.0,16.0 8.0,52.0 8.0,44.8 -64.0,8.8" fill="#b3aa9b" stroke="#625e55" stroke-width="1.00" stroke-linejoin="round"/><polygon points="8.0,52.0 64.0,24.0 64.0,16.8 8.0,44.8" fill="#817a70" stroke="#47433e" stroke-width="1.00" stroke-linejoin="round"/><polygon points="-8.0,-19.2 64.0,16.8 8.0,44.8 -64.0,8.8" fill="#c2bbaf" stroke="#6b6760" stroke-width="1.00" stroke-linejoin="round"/><line x1="-64.0" y1="12.4" x2="8.0" y2="48.4" stroke="#625e55" stroke-width="0.80" stroke-linecap="round" opacity="0.55"/><line x1="-46.0" y1="25.0" x2="-46.0" y2="21.4" stroke="#625e55" stroke-width="0.80" stroke-linecap="round" opacity="0.55"/><line x1="-28.0" y1="34.0" x2="-28.0" y2="30.4" stroke="#625e55" stroke-width="0.80" stroke-linecap="round" opacity="0.55"/><line x1="-10.0" y1="43.0" x2="-10.0" y2="39.4" stroke="#625e55" stroke-width="0.80" stroke-linecap="round" opacity="0.55"/><line x1="-55.0" y1="16.9" x2="-55.0" y2="13.3" stroke="#625e55" stroke-width="0.80" stroke-linecap="round" opacity="0.55"/><line x1="-37.0" y1="25.9" x2="-37.0" y2="22.3" stroke="#625e55" stroke-width="0.80" stroke-linecap="round" opacity="0.55"/><line x1="-19.0" y1="34.9" x2="-19.0" y2="31.3" stroke="#625e55" stroke-width="0.80" stroke-linecap="round" opacity="0.55"/><line x1="-1.0" y1="43.9" x2="-1.0" y2="40.3" stroke="#625e55" stroke-width="0.80" stroke-linecap="round" opacity="0.55"/><line x1="8.0" y1="48.4" x2="64.0" y2="20.4" stroke="#625e55" stroke-width="0.80" stroke-linecap="round" opacity="0.55"/><line x1="26.7" y1="42.7" x2="26.7" y2="39.1" stroke="#625e55" stroke-width="0.80" stroke-linecap="round" opacity="0.55"/><line x1="45.3" y1="33.3" x2="45.3" y2="29.7" stroke="#625e55" stroke-width="0.80" stroke-linecap="round" opacity="0.55"/><line x1="17.3" y1="43.7" x2="17.3" y2="40.1" stroke="#625e55" stroke-width="0.80" stroke-linecap="round" opacity="0.55"/><line x1="36.0" y1="34.4" x2="36.0" y2="30.8" stroke="#625e55" stroke-width="0.80" stroke-linecap="round" opacity="0.55"/><line x1="54.7" y1="25.1" x2="54.7" y2="21.5" stroke="#625e55" stroke-width="0.80" stroke-linecap="round" opacity="0.55"/><line x1="-64.0" y1="8.8" x2="8.0" y2="44.8" stroke="#d5d0c8" stroke-width="1.20" stroke-linecap="round" opacity="0.8"/><polygon points="-56.0,8.8 8.0,40.8 8.0,26.8 -56.0,-5.2" fill="#c8bfae" stroke="#6e6960" stroke-width="1.00" stroke-linejoin="round"/><polygon points="8.0,40.8 56.0,16.8 56.0,2.8 8.0,26.8" fill="#908a7d" stroke="#4f4c45" stroke-width="1.00" stroke-linejoin="round"/><polygon points="-8.0,-29.2 56.0,2.8 8.0,26.8 -56.0,-5.2" fill="#d3ccbe" stroke="#747069" stroke-width="1.00" stroke-linejoin="round"/><line x1="-56.0" y1="1.8" x2="8.0" y2="33.8" stroke="#6e6960" stroke-width="0.80" stroke-linecap="round" opacity="0.55"/><line x1="-40.0" y1="16.8" x2="-40.0" y2="9.8" stroke="#6e6960" stroke-width="0.80" stroke-linecap="round" opacity="0.55"/><line x1="-24.0" y1="24.8" x2="-24.0" y2="17.8" stroke="#6e6960" stroke-width="0.80" stroke-linecap="round" opacity="0.55"/><line x1="-8.0" y1="32.8" x2="-8.0" y2="25.8" stroke="#6e6960" stroke-width="0.80" stroke-linecap="round" opacity="0.55"/><line x1="-48.0" y1="5.8" x2="-48.0" y2="-1.2" stroke="#6e6960" stroke-width="0.80" stroke-linecap="round" opacity="0.55"/><line x1="-32.0" y1="13.8" x2="-32.0" y2="6.8" stroke="#6e6960" stroke-width="0.80" stroke-linecap="round" opacity="0.55"/><line x1="-16.0" y1="21.8" x2="-16.0" y2="14.8" stroke="#6e6960" stroke-width="0.80" stroke-linecap="round" opacity="0.55"/><line x1="0.0" y1="29.8" x2="0.0" y2="22.8" stroke="#6e6960" stroke-width="0.80" stroke-linecap="round" opacity="0.55"/><line x1="8.0" y1="33.8" x2="56.0" y2="9.8" stroke="#6e6960" stroke-width="0.80" stroke-linecap="round" opacity="0.55"/><line x1="24.0" y1="32.8" x2="24.0" y2="25.8" stroke="#6e6960" stroke-width="0.80" stroke-linecap="round" opacity="0.55"/><line x1="40.0" y1="24.8" x2="40.0" y2="17.8" stroke="#6e6960" stroke-width="0.80" stroke-linecap="round" opacity="0.55"/><line x1="16.0" y1="29.8" x2="16.0" y2="22.8" stroke="#6e6960" stroke-width="0.80" stroke-linecap="round" opacity="0.55"/><line x1="32.0" y1="21.8" x2="32.0" y2="14.8" stroke="#6e6960" stroke-width="0.80" stroke-linecap="round" opacity="0.55"/><line x1="48.0" y1="13.8" x2="48.0" y2="6.8" stroke="#6e6960" stroke-width="0.80" stroke-linecap="round" opacity="0.55"/><line x1="-56.0" y1="-5.2" x2="8.0" y2="26.8" stroke="#e1dcd2" stroke-width="1.20" stroke-linecap="round" opacity="0.8"/><polygon points="-62.8,10.2 -60.0,11.6 -60.0,-36.4 -62.8,-37.8" fill="#cf9a5e" stroke="#725534" stroke-width="1.00" stroke-linejoin="round"/><polygon points="-60.0,11.6 -57.2,10.2 -57.2,-37.8 -60.0,-36.4" fill="#956f44" stroke="#523d25" stroke-width="1.00" stroke-linejoin="round"/><polygon points="-60.0,-39.2 -57.2,-37.8 -60.0,-36.4 -62.8,-37.8" fill="#d9ae7e" stroke="#776045" stroke-width="1.00" stroke-linejoin="round"/><polygon points="5.2,44.2 8.0,45.6 8.0,-2.4 5.2,-3.8" fill="#cf9a5e" stroke="#725534" stroke-width="1.00" stroke-linejoin="round"/><polygon points="8.0,45.6 10.8,44.2 10.8,-3.8 8.0,-2.4" fill="#956f44" stroke="#523d25" stroke-width="1.00" stroke-linejoin="round"/><polygon points="8.0,-5.2 10.8,-3.8 8.0,-2.4 5.2,-3.8" fill="#d9ae7e" stroke="#776045" stroke-width="1.00" stroke-linejoin="round"/><polygon points="57.2,18.2 60.0,19.6 60.0,-28.4 57.2,-29.8" fill="#cf9a5e" stroke="#725534" stroke-width="1.00" stroke-linejoin="round"/><polygon points="60.0,19.6 62.8,18.2 62.8,-29.8 60.0,-28.4" fill="#956f44" stroke="#523d25" stroke-width="1.00" stroke-linejoin="round"/><polygon points="60.0,-31.2 62.8,-29.8 60.0,-28.4 57.2,-29.8" fill="#d9ae7e" stroke="#776045" stroke-width="1.00" stroke-linejoin="round"/><line x1="-61.2" y1="-19.4" x2="8.0" y2="15.2" stroke="#cf9a5e" stroke-width="3.00" stroke-linecap="round" opacity="1.0"/><line x1="8.0" y1="15.2" x2="61.2" y2="-11.4" stroke="#cf9a5e" stroke-width="3.00" stroke-linecap="round" opacity="1.0"/><line x1="-61.2" y1="4.6" x2="8.0" y2="-0.8" stroke="#cf9a5e" stroke-width="2.40" stroke-linecap="round" opacity="0.9"/><polygon points="-71.2,23.6 -71.0,22.5 -70.6,21.4 -69.9,20.4 -69.0,19.4 -68.0,18.8 -67.0,18.5 -66.1,18.5 -65.4,18.8 -33.4,34.8 -33.0,35.5 -32.8,36.4 -33.0,37.5 -33.4,38.6 -34.1,39.6 -35.0,40.5 -36.0,41.2 -37.0,41.5 -37.9,41.5 -38.6,41.2 -70.6,25.2 -71.0,24.5" fill="url(#sp-construction-g1)" stroke="#50321d" stroke-width="1.00" stroke-linejoin="round"/><polygon points="-32.8,36.4 -33.0,37.5 -33.4,38.6 -34.1,39.6 -35.0,40.5 -36.0,41.2 -37.0,41.5 -37.9,41.5 -38.6,41.2 -39.0,40.5 -39.2,39.6 -39.0,38.5 -38.6,37.4 -37.9,36.4 -37.0,35.5 -36.0,34.8 -35.0,34.5 -34.1,34.5 -33.4,34.8 -33.0,35.5" fill="#e9c48a" stroke="#806c4c" stroke-width="1.00" stroke-linejoin="round"/><circle cx="-36.0" cy="38.0" r="1.4" fill="none" stroke="#a38961" stroke-width="0.90" opacity="1.0"/><polygon points="-75.2,27.6 -75.0,26.5 -74.6,25.4 -73.9,24.4 -73.0,23.4 -72.0,22.8 -71.0,22.5 -70.1,22.5 -69.4,22.8 -37.4,38.8 -37.0,39.5 -36.8,40.4 -37.0,41.5 -37.4,42.6 -38.1,43.6 -39.0,44.5 -40.0,45.2 -41.0,45.5 -41.9,45.5 -42.6,45.2 -74.6,29.2 -75.0,28.5" fill="url(#sp-construction-g2)" stroke="#50321d" stroke-width="1.00" stroke-linejoin="round"/><polygon points="-36.8,40.4 -37.0,41.5 -37.4,42.6 -38.1,43.6 -39.0,44.5 -40.0,45.2 -41.0,45.5 -41.9,45.5 -42.6,45.2 -43.0,44.5 -43.2,43.6 -43.0,42.5 -42.6,41.4 -41.9,40.4 -41.0,39.5 -40.0,38.8 -39.0,38.5 -38.1,38.5 -37.4,38.8 -37.0,39.5" fill="#e9c48a" stroke="#806c4c" stroke-width="1.00" stroke-linejoin="round"/><circle cx="-40.0" cy="42.0" r="1.4" fill="none" stroke="#a38961" stroke-width="0.90" opacity="1.0"/></svg>