<svg viewBox="-46 -17 102 62" xmlns="http://www.w3.org/2000/svg"><defs><filter id="sp-hearth-blur" x="-50%" y="-50%" width="200%" height="200%"><feGaussianBlur stdDeviation="3.6"/></filter><filter id="sp-hearth-glow" x="-50%" y="-50%" width="200%" height="200%"><feGaussianBlur stdDeviation="8.0"/></filter><radialGradient id="sp-hearth-g1" cx="0.35" cy="0.3" r="0.8"><stop offset="0" stop-color="#c4c0b9"/><stop offset="0.55" stop-color="#9c968b"/><stop offset="1" stop-color="#5e5a53"/></radialGradient><radialGradient id="sp-hearth-g2" cx="0.35" cy="0.3" r="0.8"><stop offset="0" stop-color="#c4c0b9"/><stop offset="0.55" stop-color="#9c968b"/><stop offset="1" stop-color="#5e5a53"/></radialGradient><radialGradient id="sp-hearth-g3" cx="0.35" cy="0.3" r="0.8"><stop offset="0" stop-color="#c4c0b9"/><stop offset="0.55" stop-color="#9c968b"/><stop offset="1" stop-color="#5e5a53"/></radialGradient><radialGradient id="sp-hearth-g4" cx="0.35" cy="0.3" r="0.8"><stop offset="0" stop-color="#c4c0b9"/><stop offset="0.55" stop-color="#9c968b"/><stop offset="1" stop-color="#5e5a53"/></radialGradient><radialGradient id="sp-hearth-g5" cx="0.35" cy="0.3" r="0.8"><stop offset="0" stop-color="#c4c0b9"/><stop offset="0.55" stop-color="#9c968b"/><stop offset="1" stop-color="#5e5a53"/></radialGradient><linearGradient id="sp-hearth-g6" x1="0" y1="0" x2="0" y2="1"><stop offset="0" stop-color="#92705b"/><stop offset="1" stop-color="#482a17"/></linearGradient><linearGradient id="sp-hearth-g7" x1="0" y1="0" x2="0" y2="1"><stop offset="0" stop-color="#9b775f"/><stop offset="1" stop-color="#4f301b"/></linearGradient><radialGradient id="sp-hearth-g8" cx="0.35" cy="0.3" r="0.8"><stop offset="0" stop-color="#d0ccc6"/><stop offset="0.55" stop-color="#aaa397"/><stop offset="1" stop-color="#66625b"/></radialGradient><radialGradient id="sp-hearth-g9" cx="0.35" cy="0.3" r="0.8"><stop offset="0" stop-color="#d0ccc6"/><stop offset="0.55" stop-color="#aaa397"/><stop offset="1" stop-color="#66625b"/></radialGradient><radialGradient id="sp-hearth-g10" cx="0.35" cy="0.3" r="0.8"><stop offset="0" stop-color="#d0ccc6"/><stop offset="0.55" stop-color="#aaa397"/><stop offset="1" stop-color="#66625b"/></radialGradient><radialGradient id="sp-hearth-g11" cx="0.35" cy="0.3" r="0.8"><stop offset="0" stop-color="#d0ccc6"/><stop offset="0.55" stop-color="#aaa397"/><stop offset="1" stop-color="#66625b"/></radialGradient><radialGradient id="sp-hearth-g12" cx="0.35" cy="0.3" r="0.8"><stop offset="0" stop-color="#d0ccc6"/><stop offset="0.55" stop-color="#aaa397"/><stop offset="1" stop-color="#66625b"/></radialGradient><linearGradient id="sp-hearth-g13" x1="0" y1="0" x2="0" y2="1"><stop offset="0" stop-color="#b88b6b"/><stop offset="1" stop-color="#684126"/></linearGradient><linearGradient id="sp-hearth-g14" x1="0" y1="0" x2="0" y2="1"><stop offset="0" stop-color="#b88b6b"/><stop offset="1" stop-color="#684126"/></linearGradient></defs><polygon points="30.0,35.0 22.6,38.0 14.0,40.0 4.8,41.1 -4.8,41.1 -14.0,40.0 -22.6,38.0 -30.0,35.0 -35.9,31.3 -40.0,27.0 -42.2,22.4 -42.2,17.6 -40.0,13.0 -35.9,8.7 -30.0,5.0 -22.6,2.0 -14.0,-0.0 -4.8,-1.1 4.8,-1.1 14.0,-0.0 22.6,2.0 30.0,5.0 35.9,8.7 40.0,13.0 42.2,17.6 42.2,22.4 40.0,27.0 35.9,31.3" fill="#cdbfa3" stroke="#a89878" stroke-width="1.00" stroke-linejoin="round"/><circle cx="0.0" cy="8.0" r="30.0" fill="#ffb347" opacity="0.45" filter="url(#sp-hearth-glow)"/><circle cx="-4.4" cy="2.8" r="5.2" fill="url(#sp-hearth-g1)" stroke="#4e4b46" stroke-width="1.00" opacity="1.0"/><circle cx="12.8" cy="4.2" r="5.2" fill="url(#sp-hearth-g2)" stroke="#4e4b46" stroke-width="1.00" opacity="1.0"/><circle cx="-20.0" cy="6.8" r="5.2" fill="url(#sp-hearth-g3)" stroke="#4e4b46" stroke-width="1.00" opacity="1.0"/><circle cx="25.2" cy="10.4" r="5.2" fill="url(#sp-hearth-g4)" stroke="#4e4b46" stroke-width="1.00" opacity="1.0"/><circle cx="-27.9" cy="14.6" r="5.2" fill="url(#sp-hearth-g5)" stroke="#4e4b46" stroke-width="1.00" opacity="1.0"/><polygon points="-11.5,8.9 -11.4,8.0 -10.9,7.1 -10.1,6.3 -9.1,5.6 -8.0,5.2 -6.9,5.1 -5.9,5.2 -5.1,5.6 10.9,21.6 11.4,22.3 11.5,23.1 11.4,24.0 10.9,24.9 10.1,25.7 9.1,26.4 8.0,26.8 6.9,26.9 5.9,26.8 5.1,26.4 -10.9,10.4 -11.4,9.7" fill="url(#sp-hearth-g6)" stroke="#372012" stroke-width="1.00" stroke-linejoin="round"/><polygon points="11.5,23.1 11.4,24.0 10.9,24.9 10.1,25.7 9.1,26.4 8.0,26.8 6.9,26.9 5.9,26.8 5.1,26.4 4.6,25.7 4.5,24.9 4.6,24.0 5.1,23.1 5.9,22.3 6.9,21.6 8.0,21.2 9.1,21.1 10.1,21.2 10.9,21.6 11.4,22.3" fill="#e9c48a" stroke="#806c4c" stroke-width="1.00" stroke-linejoin="round"/><circle cx="8.0" cy="24.0" r="1.3" fill="none" stroke="#a38961" stroke-width="0.90" opacity="1.0"/><polygon points="-17.8,18.2 -17.7,17.4 -17.4,16.9 -17.0,16.7 15.0,8.7 15.4,8.8 16.0,9.2 16.6,9.9 17.0,10.8 17.4,11.8 17.7,12.8 17.8,13.8 17.7,14.6 17.4,15.1 17.0,15.3 -15.0,23.3 -15.4,23.2 -16.0,22.8 -16.6,22.1 -17.0,21.2 -17.4,20.2 -17.7,19.2" fill="url(#sp-hearth-g7)" stroke="#3d2515" stroke-width="1.00" stroke-linejoin="round"/><polygon points="-17.8,18.2 -17.7,19.2 -17.4,20.2 -17.0,21.2 -16.5,22.1 -16.0,22.8 -15.5,23.2 -15.0,23.3 -14.6,23.1 -14.3,22.5 -14.2,21.8 -14.3,20.8 -14.6,19.8 -15.0,18.8 -15.5,17.9 -16.0,17.2 -16.5,16.8 -17.0,16.7 -17.4,16.9 -17.7,17.5" fill="#e9c48a" stroke="#806c4c" stroke-width="1.00" stroke-linejoin="round"/><circle cx="-16.0" cy="20.0" r="1.3" fill="none" stroke="#a38961" stroke-width="0.90" opacity="1.0"/><path d="M-10.4,15.2 Q-10.4,1.2 -1.6,-12.8 Q2.1,-0.2 4.7,-5.8 Q10.4,6.8 10.4,15.2Z" fill="#e8492e" stroke="#972f1e" stroke-width="1.00" stroke-linecap="round" stroke-linejoin="round" opacity="1.0"/><path d="M-7.2,15.2 Q-7.2,4.8 -1.1,-5.6 Q1.4,3.8 3.2,-0.4 Q7.2,9.0 7.2,15.2Z" fill="#ff9a2e" stroke="#a6641e" stroke-width="1.00" stroke-linecap="round" stroke-linejoin="round" opacity="1.0"/><path d="M-4.0,15.2 Q-4.0,8.8 -0.6,2.4 Q0.8,8.2 1.8,5.6 Q4.0,11.4 4.0,15.2Z" fill="#ffe06b" stroke="#a69246" stroke-width="1.00" stroke-linecap="round" stroke-linejoin="round" opacity="1.0"/><circle cx="27.9" cy="19.0" r="5.2" fill="url(#sp-hearth-g8)" stroke="#55524c" stroke-width="1.00" opacity="1.0"/><circle cx="-25.2" cy="23.2" r="5.2" fill="url(#sp-hearth-g9)" stroke="#55524c" stroke-width="1.00" opacity="1.0"/><circle cx="20.0" cy="26.8" r="5.2" fill="url(#sp-hearth-g10)" stroke="#55524c" stroke-width="1.00" opacity="1.0"/><circle cx="-12.8" cy="29.4" r="5.2" fill="url(#sp-hearth-g11)" stroke="#55524c" stroke-width="1.00" opacity="1.0"/><circle cx="4.4" cy="30.8" r="5.2" fill="url(#sp-hearth-g12)" stroke="#55524c" stroke-width="1.00" opacity="1.0"/><polygon points="23.2,24.8 23.3,24.0 23.7,23.4 24.4,23.1 43.7,13.4 44.4,13.1 45.1,13.1 46.0,13.4 46.9,14.0 47.6,14.8 48.3,15.7 48.7,16.7 48.8,17.6 48.7,18.4 48.3,19.0 28.3,29.0 27.6,29.3 26.9,29.3 26.0,29.0 25.1,28.4 24.4,27.6 23.7,26.7 23.3,25.7" fill="url(#sp-hearth-g13)" stroke="#50321d" stroke-width="1.00" stroke-linejoin="round"/><polygon points="28.8,27.6 28.7,28.4 28.3,29.0 27.6,29.3 26.9,29.3 26.0,29.0 25.1,28.4 24.4,27.6 23.7,26.7 23.3,25.7 23.2,24.8 23.3,24.0 23.7,23.4 24.4,23.1 25.1,23.1 26.0,23.4 26.9,24.0 27.6,24.8 28.3,25.7 28.7,26.7" fill="#e9c48a" stroke="#806c4c" stroke-width="1.00" stroke-linejoin="round"/><circle cx="26.0" cy="26.2" r="1.3" fill="none" stroke="#a38961" stroke-width="0.90" opacity="1.0"/><polygon points="26.4,28.4 26.5,27.6 26.9,27.0 47.5,16.7 48.3,16.7 49.2,17.0 50.1,17.6 50.9,18.4 51.5,19.3 51.9,20.3 52.0,21.2 51.9,22.0 51.5,22.6 50.9,22.9 30.9,32.9 30.1,32.9 29.2,32.6 28.3,32.0 27.6,31.2 26.9,30.3 26.5,29.3" fill="url(#sp-hearth-g14)" stroke="#50321d" stroke-width="1.00" stroke-linejoin="round"/><polygon points="32.0,31.2 31.9,32.0 31.5,32.6 30.8,32.9 30.1,32.9 29.2,32.6 28.3,32.0 27.6,31.2 26.9,30.3 26.5,29.3 26.4,28.4 26.5,27.6 26.9,27.0 27.6,26.7 28.3,26.7 29.2,27.0 30.1,27.6 30.8,28.4 31.5,29.3 31.9,30.3" fill="#e9c48a" stroke="#806c4c" stroke-width="1.00" stroke-linejoin="round"/><circle cx="29.2" cy="29.8" r="1.3" fill="none" stroke="#a38961" stroke-width="0.90" opacity="1.0"/></svg>