<svg viewBox="-32 -45 65 93" xmlns="http://www.w3.org/2000/svg"><defs><filter id="wi-oak0-blur" x="-50%" y="-50%" width="200%" height="200%"><feGaussianBlur stdDeviation="3.6"/></filter><filter id="wi-oak0-glow" x="-50%" y="-50%" width="200%" height="200%"><feGaussianBlur stdDeviation="8.0"/></filter><linearGradient id="wi-oak0-g1" x1="0" y1="0" x2="1" y2="0"><stop offset="0" stop-color="#977259"/><stop offset="0.45" stop-color="#7a4a2a"/><stop offset="1" stop-color="#4f301b"/></linearGradient><radialGradient id="wi-oak0-g2" cx="0.35" cy="0.3" r="0.8"><stop offset="0" stop-color="#f9fcff"/><stop offset="0.55" stop-color="#f7fbff"/><stop offset="1" stop-color="#949799"/></radialGradient><radialGradient id="wi-oak0-g3" cx="0.35" cy="0.3" r="0.8"><stop offset="0" stop-color="#f9fcff"/><stop offset="0.55" stop-color="#f7fbff"/><stop offset="1" stop-color="#949799"/></radialGradient><radialGradient id="wi-oak0-g4" cx="0.35" cy="0.3" r="0.8"><stop offset="0" stop-color="#f9fcff"/><stop offset="0.55" stop-color="#f7fbff"/><stop offset="1" stop-color="#949799"/></radialGradient><radialGradient id="wi-oak0-g5" cx="0.35" cy="0.3" r="0.8"><stop offset="0" stop-color="#f9fcff"/><stop offset="0.55" stop-color="#f7fbff"/><stop offset="1" stop-color="#949799"/></radialGradient><radialGradient id="wi-oak0-g6" cx="0.35" cy="0.3" r="0.8"><stop offset="0" stop-color="#f9fcff"/><stop offset="0.55" stop-color="#f7fbff"/><stop offset="1" stop-color="#949799"/></radialGradient></defs><polygon points="22.0,41.0 18.1,42.5 13.4,43.6 8.3,44.1 2.8,44.1 -2.7,43.6 -8.2,42.5 -13.4,41.0 -18.0,39.0 -21.9,36.7 -25.0,34.1 -27.2,31.4 -28.3,28.6 -28.3,25.9 -27.2,23.3 -25.1,21.0 -22.0,19.0 -18.1,17.5 -13.4,16.4 -8.3,15.9 -2.8,15.9 2.7,16.4 8.2,17.5 13.4,19.0 18.0,21.0 21.9,23.3 25.0,25.9 27.2,28.6 28.3,31.4 28.3,34.1 27.2,36.7 25.1,39.0" fill="#1d2a10" opacity="0.3" filter="url(#wi-oak0-blur)"/><polygon points="-5.6,-2.3 -5.3,-2.9 -4.8,-3.5 -4.0,-4.0 -3.0,-4.4 -1.9,-4.7 -0.6,-4.8 0.6,-4.8 1.9,-4.7 3.0,-4.4 4.0,-4.0 4.8,-3.5 5.3,-2.9 5.6,-2.3 5.6,20.3 5.3,20.9 4.8,21.5 4.0,22.0 3.0,22.4 1.9,22.7 0.6,22.8 -0.6,22.8 -1.9,22.7 -3.0,22.4 -4.0,22.0 -4.8,21.5 -5.3,20.9 -5.6,20.3" fill="url(#wi-oak0-g1)" stroke="#3d2515" stroke-width="1.00" stroke-linejoin="round"/><polygon points="4.0,0.0 3.0,0.4 1.9,0.7 0.6,0.8 -0.6,0.8 -1.9,0.7 -3.0,0.4 -4.0,0.0 -4.8,-0.5 -5.3,-1.1 -5.6,-1.7 -5.6,-2.3 -5.3,-2.9 -4.8,-3.5 -4.0,-4.0 -3.0,-4.4 -1.9,-4.7 -0.6,-4.8 0.6,-4.8 1.9,-4.7 3.0,-4.4 4.0,-4.0 4.8,-3.5 5.3,-2.9 5.6,-2.3 5.6,-1.7 5.3,-1.1 4.8,-0.5" fill="#8e654a" stroke="#3d2515" stroke-width="1.00" stroke-linejoin="round"/><line x1="0.0" y1="0.0" x2="16.0" y2="-24.0" stroke="#6e4a30" stroke-width="3.40" stroke-linecap="round" opacity="1.0"/><line x1="11.2" y1="-15.6" x2="18.0" y2="-25.0" stroke="#6e4a30" stroke-width="2.00" stroke-linecap="round" opacity="1.0"/><circle cx="16.0" cy="-25.2" r="2.4" fill="url(#wi-oak0-g2)" stroke="#7c7e80" stroke-width="1.00" opacity="1.0"/><line x1="0.0" y1="0.0" x2="-18.0" y2="-27.0" stroke="#6e4a30" stroke-width="3.40" stroke-linecap="round" opacity="1.0"/><line x1="-12.6" y1="-17.3" x2="-19.8" y2="-30.7" stroke="#6e4a30" stroke-width="2.00" stroke-linecap="round" opacity="1.0"/><circle cx="-18.0" cy="-28.2" r="2.4" fill="url(#wi-oak0-g3)" stroke="#7c7e80" stroke-width="1.00" opacity="1.0"/><line x1="0.0" y1="0.0" x2="-10.0" y2="-13.0" stroke="#6e4a30" stroke-width="3.40" stroke-linecap="round" opacity="1.0"/><line x1="-7.0" y1="-7.1" x2="-8.4" y2="-15.4" stroke="#6e4a30" stroke-width="2.00" stroke-linecap="round" opacity="1.0"/><circle cx="-10.0" cy="-14.2" r="2.4" fill="url(#wi-oak0-g4)" stroke="#7c7e80" stroke-width="1.00" opacity="1.0"/><line x1="0.0" y1="0.0" x2="10.0" y2="-37.0" stroke="#6e4a30" stroke-width="3.40" stroke-linecap="round" opacity="1.0"/><line x1="7.0" y1="-24.9" x2="8.4" y2="-39.1" stroke="#6e4a30" stroke-width="2.00" stroke-linecap="round" opacity="1.0"/><circle cx="10.0" cy="-38.2" r="2.4" fill="url(#wi-oak0-g5)" stroke="#7c7e80" stroke-width="1.00" opacity="1.0"/><line x1="0.0" y1="0.0" x2="0.0" y2="-36.0" stroke="#6e4a30" stroke-width="3.40" stroke-linecap="round" opacity="1.0"/><line x1="0.0" y1="-24.8" x2="0.0" y2="-38.8" stroke="#6e4a30" stroke-width="2.00" stroke-linecap="round" opacity="1.0"/><circle cx="0.0" cy="-37.2" r="2.4" fill="url(#wi-oak0-g6)" stroke="#7c7e80" stroke-width="1.00" opacity="1.0"/></svg>