<svg viewBox="-98 -77 179 140" xmlns="http://www.w3.org/2000/svg"><defs><filter id="wi-shelter-4-blur" x="-50%" y="-50%" width="200%" height="200%"><feGaussianBlur stdDeviation="3.6"/></filter><filter id="wi-shelter-4-glow" x="-50%" y="-50%" width="200%" height="200%"><feGaussianBlur stdDeviation="8.0"/></filter><radialGradient id="wi-shelter-4-g1" cx="0.35" cy="0.3" r="0.8"><stop offset="0" stop-color="#fae2a8"/><stop offset="0.55" stop-color="#f5c451"/><stop offset="1" stop-color="#937631"/></radialGradient><radialGradient id="wi-shelter-4-g2" cx="0.35" cy="0.3" r="0.8"><stop offset="0" stop-color="#f9dc97"/><stop offset="0.55" stop-color="#f5c451"/><stop offset="1" stop-color="#937631"/></radialGradient></defs><polygon points="54.6,53.3 46.7,56.1 37.1,57.8 26.1,58.3 14.0,57.6 1.4,55.6 -11.2,52.5 -23.4,48.3 -34.7,43.4 -44.7,37.7 -53.0,31.6 -59.2,25.3 -63.1,19.0 -64.7,13.0 -63.7,7.4 -60.3,2.6 -54.6,-1.3 -46.7,-4.1 -37.1,-5.8 -26.1,-6.3 -14.0,-5.6 -1.4,-3.6 11.2,-0.5 23.4,3.7 34.7,8.6 44.7,14.3 53.0,20.4 59.2,26.7 63.1,33.0 64.7,39.0 63.7,44.6 60.3,49.4" fill="#1d2a10" opacity="0.3" filter="url(#wi-shelter-4-blur)"/><polygon points="-72.0,12.0 16.0,56.0 16.0,48.0 -72.0,4.0" fill="#b3aa9b" stroke="#625e55" stroke-width="1.00" stroke-linejoin="round"/><polygon points="16.0,56.0 72.0,28.0 72.0,20.0 16.0,48.0" fill="#817a70" stroke="#47433e" stroke-width="1.00" stroke-linejoin="round"/><polygon points="-16.0,-24.0 72.0,20.0 16.0,48.0 -72.0,4.0" fill="#c2bbaf" stroke="#6b6760" stroke-width="1.00" stroke-linejoin="round"/><line x1="-72.0" y1="8.0" x2="16.0" y2="52.0" stroke="#625e55" stroke-width="0.80" stroke-linecap="round" opacity="0.55"/><line x1="-57.3" y1="19.3" x2="-57.3" y2="15.3" stroke="#625e55" stroke-width="0.80" stroke-linecap="round" opacity="0.55"/><line x1="-42.7" y1="26.7" x2="-42.7" y2="22.7" stroke="#625e55" stroke-width="0.80" stroke-linecap="round" opacity="0.55"/><line x1="-28.0" y1="34.0" x2="-28.0" y2="30.0" stroke="#625e55" stroke-width="0.80" stroke-linecap="round" opacity="0.55"/><line x1="-13.3" y1="41.3" x2="-13.3" y2="37.3" stroke="#625e55" stroke-width="0.80" stroke-linecap="round" opacity="0.55"/><line x1="1.3" y1="48.7" x2="1.3" y2="44.7" stroke="#625e55" stroke-width="0.80" stroke-linecap="round" opacity="0.55"/><line x1="-64.7" y1="11.7" x2="-64.7" y2="7.7" stroke="#625e55" stroke-width="0.80" stroke-linecap="round" opacity="0.55"/><line x1="-50.0" y1="19.0" x2="-50.0" y2="15.0" stroke="#625e55" stroke-width="0.80" stroke-linecap="round" opacity="0.55"/><line x1="-35.3" y1="26.3" x2="-35.3" y2="22.3" stroke="#625e55" stroke-width="0.80" stroke-linecap="round" opacity="0.55"/><line x1="-20.7" y1="33.7" x2="-20.7" y2="29.7" stroke="#625e55" stroke-width="0.80" stroke-linecap="round" opacity="0.55"/><line x1="-6.0" y1="41.0" x2="-6.0" y2="37.0" stroke="#625e55" stroke-width="0.80" stroke-linecap="round" opacity="0.55"/><line x1="8.7" y1="48.3" x2="8.7" y2="44.3" stroke="#625e55" stroke-width="0.80" stroke-linecap="round" opacity="0.55"/><line x1="16.0" y1="52.0" x2="72.0" y2="24.0" stroke="#625e55" stroke-width="0.80" stroke-linecap="round" opacity="0.55"/><line x1="34.7" y1="46.7" x2="34.7" y2="42.7" stroke="#625e55" stroke-width="0.80" stroke-linecap="round" opacity="0.55"/><line x1="53.3" y1="37.3" x2="53.3" y2="33.3" stroke="#625e55" stroke-width="0.80" stroke-linecap="round" opacity="0.55"/><line x1="25.3" y1="47.3" x2="25.3" y2="43.3" stroke="#625e55" stroke-width="0.80" stroke-linecap="round" opacity="0.55"/><line x1="44.0" y1="38.0" x2="44.0" y2="34.0" stroke="#625e55" stroke-width="0.80" stroke-linecap="round" opacity="0.55"/><line x1="62.7" y1="28.7" x2="62.7" y2="24.7" stroke="#625e55" stroke-width="0.80" stroke-linecap="round" opacity="0.55"/><line x1="-72.0" y1="4.0" x2="16.0" y2="48.0" stroke="#d5d0c8" stroke-width="1.20" stroke-linecap="round" opacity="0.8"/><polygon points="-64.0,4.0 16.0,44.0 16.0,16.0 -64.0,-24.0" fill="#a0643a" stroke="#583720" stroke-width="1.00" stroke-linejoin="round"/><polygon points="16.0,44.0 64.0,20.0 64.0,-8.0 16.0,16.0" fill="#73482a" stroke="#3f2817" stroke-width="1.00" stroke-linejoin="round"/><polygon points="-16.0,-48.0 64.0,-8.0 16.0,16.0 -64.0,-24.0" fill="#b38361" stroke="#624835" stroke-width="1.00" stroke-linejoin="round"/><line x1="-64.0" y1="-0.7" x2="16.0" y2="39.3" stroke="#583720" stroke-width="0.80" stroke-linecap="round" opacity="0.5"/><line x1="-64.0" y1="-5.3" x2="16.0" y2="34.7" stroke="#583720" stroke-width="0.80" stroke-linecap="round" opacity="0.5"/><line x1="-64.0" y1="-10.0" x2="16.0" y2="30.0" stroke="#583720" stroke-width="0.80" stroke-linecap="round" opacity="0.5"/><line x1="-64.0" y1="-14.7" x2="16.0" y2="25.3" stroke="#583720" stroke-width="0.80" stroke-linecap="round" opacity="0.5"/><line x1="-64.0" y1="-19.3" x2="16.0" y2="20.7" stroke="#583720" stroke-width="0.80" stroke-linecap="round" opacity="0.5"/><line x1="16.0" y1="39.3" x2="64.0" y2="15.3" stroke="#583720" stroke-width="0.80" stroke-linecap="round" opacity="0.5"/><line x1="16.0" y1="34.7" x2="64.0" y2="10.7" stroke="#583720" stroke-width="0.80" stroke-linecap="round" opacity="0.5"/><line x1="16.0" y1="30.0" x2="64.0" y2="6.0" stroke="#583720" stroke-width="0.80" stroke-linecap="round" opacity="0.5"/><line x1="16.0" y1="25.3" x2="64.0" y2="1.3" stroke="#583720" stroke-width="0.80" stroke-linecap="round" opacity="0.5"/><line x1="16.0" y1="20.7" x2="64.0" y2="-3.3" stroke="#583720" stroke-width="0.80" stroke-linecap="round" opacity="0.5"/><polygon points="-32.0,20.0 -16.0,28.0 -16.0,4.2 -20.8,-1.1 -24.0,-4.6 -27.2,-4.3 -32.0,-3.8" fill="#6e4024" stroke="#372012" stroke-width="3.20" stroke-linejoin="round"/><polygon points="-32.0,20.0 -16.0,28.0 -16.0,4.2 -20.8,-1.1 -24.0,-4.6 -27.2,-4.3 -32.0,-3.8" fill="#3a2414"/><polygon points="-54.4,-2.4 -41.6,4.0 -41.6,-5.0 -54.4,-11.4" fill="#ffd36b" stroke="#6b4426" stroke-width="3.00" stroke-linejoin="round"/><line x1="-48.0" y1="0.8" x2="-48.0" y2="-8.2" stroke="#6b4426" stroke-width="1.60" stroke-linecap="round" opacity="1.0"/><line x1="-54.4" y1="-6.9" x2="-41.6" y2="-0.5" stroke="#6b4426" stroke-width="1.60" stroke-linecap="round" opacity="1.0"/><polygon points="-6.4,21.6 6.4,28.0 6.4,19.0 -6.4,12.6" fill="#ffd36b" stroke="#6b4426" stroke-width="3.00" stroke-linejoin="round"/><line x1="0.0" y1="24.8" x2="0.0" y2="15.8" stroke="#6b4426" stroke-width="1.60" stroke-linecap="round" opacity="1.0"/><line x1="-6.4" y1="17.1" x2="6.4" y2="23.5" stroke="#6b4426" stroke-width="1.60" stroke-linecap="round" opacity="1.0"/><polygon points="-16.0,-54.4 76.8,-8.0 46.4,-26.8 -46.4,-73.2" fill="#a75835" stroke="#5c301d" stroke-width="1.00" stroke-linejoin="round"/><polygon points="64.0,-8.0 16.0,16.0 40.0,-30.0" fill="#7d4e2d" stroke="#452b19" stroke-width="1.00" stroke-linejoin="round"/><polygon points="76.8,-8.0 46.4,-26.8 16.0,22.4 16.0,26.4 46.4,-21.6 76.8,-4.0" fill="#6c3922" stroke="#3b1f13" stroke-width="1.00" stroke-linejoin="round"/><polygon points="-76.8,-24.0 16.0,22.4 46.4,-26.8 -46.4,-73.2" fill="#c4683e" stroke="#6c3922" stroke-width="1.00" stroke-linejoin="round"/><polygon points="-76.8,-24.0 16.0,22.4 16.0,26.4 -76.8,-20.0" fill="#7f4428" stroke="#462516" stroke-width="1.00" stroke-linejoin="round"/><line x1="-70.7" y1="-33.8" x2="22.1" y2="12.6" stroke="#763e25" stroke-width="0.80" stroke-linecap="round" opacity="0.45"/><line x1="-64.6" y1="-43.7" x2="28.2" y2="2.7" stroke="#763e25" stroke-width="0.80" stroke-linecap="round" opacity="0.45"/><line x1="-58.6" y1="-53.5" x2="34.2" y2="-7.1" stroke="#763e25" stroke-width="0.80" stroke-linecap="round" opacity="0.45"/><line x1="-52.5" y1="-63.4" x2="40.3" y2="-17.0" stroke="#763e25" stroke-width="0.80" stroke-linecap="round" opacity="0.45"/><line x1="-70.2" y1="-20.7" x2="-64.1" y2="-30.5" stroke="#763e25" stroke-width="0.80" stroke-linecap="round" opacity="0.45"/><line x1="-63.5" y1="-17.4" x2="-57.5" y2="-27.2" stroke="#763e25" stroke-width="0.80" stroke-linecap="round" opacity="0.45"/><line x1="-56.9" y1="-14.1" x2="-50.8" y2="-23.9" stroke="#763e25" stroke-width="0.80" stroke-linecap="round" opacity="0.45"/><line x1="-50.3" y1="-10.7" x2="-44.2" y2="-20.6" stroke="#763e25" stroke-width="0.80" stroke-linecap="round" opacity="0.45"/><line x1="-43.7" y1="-7.4" x2="-37.6" y2="-17.3" stroke="#763e25" stroke-width="0.80" stroke-linecap="round" opacity="0.45"/><line x1="-37.0" y1="-4.1" x2="-30.9" y2="-14.0" stroke="#763e25" stroke-width="0.80" stroke-linecap="round" opacity="0.45"/><line x1="-30.4" y1="-0.8" x2="-24.3" y2="-10.6" stroke="#763e25" stroke-width="0.80" stroke-linecap="round" opacity="0.45"/><line x1="-23.8" y1="2.5" x2="-17.7" y2="-7.3" stroke="#763e25" stroke-width="0.80" stroke-linecap="round" opacity="0.45"/><line x1="-17.1" y1="5.8" x2="-11.1" y2="-4.0" stroke="#763e25" stroke-width="0.80" stroke-linecap="round" opacity="0.45"/><line x1="-10.5" y1="9.1" x2="-4.4" y2="-0.7" stroke="#763e25" stroke-width="0.80" stroke-linecap="round" opacity="0.45"/><line x1="-3.9" y1="12.5" x2="2.2" y2="2.6" stroke="#763e25" stroke-width="0.80" stroke-linecap="round" opacity="0.45"/><line x1="2.7" y1="15.8" x2="8.8" y2="5.9" stroke="#763e25" stroke-width="0.80" stroke-linecap="round" opacity="0.45"/><line x1="9.4" y1="19.1" x2="15.5" y2="9.2" stroke="#763e25" stroke-width="0.80" stroke-linecap="round" opacity="0.45"/><line x1="-67.4" y1="-32.2" x2="-61.3" y2="-42.0" stroke="#763e25" stroke-width="0.80" stroke-linecap="round" opacity="0.45"/><line x1="-60.8" y1="-28.9" x2="-54.7" y2="-38.7" stroke="#763e25" stroke-width="0.80" stroke-linecap="round" opacity="0.45"/><line x1="-54.1" y1="-25.6" x2="-48.1" y2="-35.4" stroke="#763e25" stroke-width="0.80" stroke-linecap="round" opacity="0.45"/><line x1="-47.5" y1="-22.2" x2="-41.4" y2="-32.1" stroke="#763e25" stroke-width="0.80" stroke-linecap="round" opacity="0.45"/><line x1="-40.9" y1="-18.9" x2="-34.8" y2="-28.8" stroke="#763e25" stroke-width="0.80" stroke-linecap="round" opacity="0.45"/><line x1="-34.3" y1="-15.6" x2="-28.2" y2="-25.5" stroke="#763e25" stroke-width="0.80" stroke-linecap="round" opacity="0.45"/><line x1="-27.6" y1="-12.3" x2="-21.6" y2="-22.1" stroke="#763e25" stroke-width="0.80" stroke-linecap="round" opacity="0.45"/><line x1="-21.0" y1="-9.0" x2="-14.9" y2="-18.8" stroke="#763e25" stroke-width="0.80" stroke-linecap="round" opacity="0.45"/><line x1="-14.4" y1="-5.7" x2="-8.3" y2="-15.5" stroke="#763e25" stroke-width="0.80" stroke-linecap="round" opacity="0.45"/><line x1="-7.7" y1="-2.4" x2="-1.7" y2="-12.2" stroke="#763e25" stroke-width="0.80" stroke-linecap="round" opacity="0.45"/><line x1="-1.1" y1="1.0" x2="5.0" y2="-8.9" stroke="#763e25" stroke-width="0.80" stroke-linecap="round" opacity="0.45"/><line x1="5.5" y1="4.3" x2="11.6" y2="-5.6" stroke="#763e25" stroke-width="0.80" stroke-linecap="round" opacity="0.45"/><line x1="12.1" y1="7.6" x2="18.2" y2="-2.3" stroke="#763e25" stroke-width="0.80" stroke-linecap="round" opacity="0.45"/><line x1="18.8" y1="10.9" x2="24.8" y2="1.1" stroke="#763e25" stroke-width="0.80" stroke-linecap="round" opacity="0.45"/><line x1="-58.0" y1="-40.4" x2="-51.9" y2="-50.2" stroke="#763e25" stroke-width="0.80" stroke-linecap="round" opacity="0.45"/><line x1="-51.4" y1="-37.1" x2="-45.3" y2="-46.9" stroke="#763e25" stroke-width="0.80" stroke-linecap="round" opacity="0.45"/><line x1="-44.8" y1="-33.7" x2="-38.7" y2="-43.6" stroke="#763e25" stroke-width="0.80" stroke-linecap="round" opacity="0.45"/><line x1="-38.1" y1="-30.4" x2="-32.0" y2="-40.3" stroke="#763e25" stroke-width="0.80" stroke-linecap="round" opacity="0.45"/><line x1="-31.5" y1="-27.1" x2="-25.4" y2="-36.9" stroke="#763e25" stroke-width="0.80" stroke-linecap="round" opacity="0.45"/><line x1="-24.9" y1="-23.8" x2="-18.8" y2="-33.6" stroke="#763e25" stroke-width="0.80" stroke-linecap="round" opacity="0.45"/><line x1="-18.2" y1="-20.5" x2="-12.2" y2="-30.3" stroke="#763e25" stroke-width="0.80" stroke-linecap="round" opacity="0.45"/><line x1="-11.6" y1="-17.2" x2="-5.5" y2="-27.0" stroke="#763e25" stroke-width="0.80" stroke-linecap="round" opacity="0.45"/><line x1="-5.0" y1="-13.9" x2="1.1" y2="-23.7" stroke="#763e25" stroke-width="0.80" stroke-linecap="round" opacity="0.45"/><line x1="1.6" y1="-10.5" x2="7.7" y2="-20.4" stroke="#763e25" stroke-width="0.80" stroke-linecap="round" opacity="0.45"/><line x1="8.3" y1="-7.2" x2="14.4" y2="-17.1" stroke="#763e25" stroke-width="0.80" stroke-linecap="round" opacity="0.45"/><line x1="14.9" y1="-3.9" x2="21.0" y2="-13.7" stroke="#763e25" stroke-width="0.80" stroke-linecap="round" opacity="0.45"/><line x1="21.5" y1="-0.6" x2="27.6" y2="-10.4" stroke="#763e25" stroke-width="0.80" stroke-linecap="round" opacity="0.45"/><line x1="-55.2" y1="-51.9" x2="-49.2" y2="-61.7" stroke="#763e25" stroke-width="0.80" stroke-linecap="round" opacity="0.45"/><line x1="-48.6" y1="-48.5" x2="-42.5" y2="-58.4" stroke="#763e25" stroke-width="0.80" stroke-linecap="round" opacity="0.45"/><line x1="-42.0" y1="-45.2" x2="-35.9" y2="-55.1" stroke="#763e25" stroke-width="0.80" stroke-linecap="round" opacity="0.45"/><line x1="-35.4" y1="-41.9" x2="-29.3" y2="-51.8" stroke="#763e25" stroke-width="0.80" stroke-linecap="round" opacity="0.45"/><line x1="-28.7" y1="-38.6" x2="-22.7" y2="-48.4" stroke="#763e25" stroke-width="0.80" stroke-linecap="round" opacity="0.45"/><line x1="-22.1" y1="-35.3" x2="-16.0" y2="-45.1" stroke="#763e25" stroke-width="0.80" stroke-linecap="round" opacity="0.45"/><line x1="-15.5" y1="-32.0" x2="-9.4" y2="-41.8" stroke="#763e25" stroke-width="0.80" stroke-linecap="round" opacity="0.45"/><line x1="-8.8" y1="-28.7" x2="-2.8" y2="-38.5" stroke="#763e25" stroke-width="0.80" stroke-linecap="round" opacity="0.45"/><line x1="-2.2" y1="-25.3" x2="3.9" y2="-35.2" stroke="#763e25" stroke-width="0.80" stroke-linecap="round" opacity="0.45"/><line x1="4.4" y1="-22.0" x2="10.5" y2="-31.9" stroke="#763e25" stroke-width="0.80" stroke-linecap="round" opacity="0.45"/><line x1="11.0" y1="-18.7" x2="17.1" y2="-28.6" stroke="#763e25" stroke-width="0.80" stroke-linecap="round" opacity="0.45"/><line x1="17.7" y1="-15.4" x2="23.7" y2="-25.2" stroke="#763e25" stroke-width="0.80" stroke-linecap="round" opacity="0.45"/><line x1="24.3" y1="-12.1" x2="30.4" y2="-21.9" stroke="#763e25" stroke-width="0.80" stroke-linecap="round" opacity="0.45"/><line x1="30.9" y1="-8.8" x2="37.0" y2="-18.6" stroke="#763e25" stroke-width="0.80" stroke-linecap="round" opacity="0.45"/><line x1="-45.9" y1="-60.0" x2="-39.8" y2="-69.9" stroke="#763e25" stroke-width="0.80" stroke-linecap="round" opacity="0.45"/><line x1="-39.2" y1="-56.7" x2="-33.1" y2="-66.6" stroke="#763e25" stroke-width="0.80" stroke-linecap="round" opacity="0.45"/><line x1="-32.6" y1="-53.4" x2="-26.5" y2="-63.3" stroke="#763e25" stroke-width="0.80" stroke-linecap="round" opacity="0.45"/><line x1="-26.0" y1="-50.1" x2="-19.9" y2="-59.9" stroke="#763e25" stroke-width="0.80" stroke-linecap="round" opacity="0.45"/><line x1="-19.3" y1="-46.8" x2="-13.3" y2="-56.6" stroke="#763e25" stroke-width="0.80" stroke-linecap="round" opacity="0.45"/><line x1="-12.7" y1="-43.5" x2="-6.6" y2="-53.3" stroke="#763e25" stroke-width="0.80" stroke-linecap="round" opacity="0.45"/><line x1="-6.1" y1="-40.2" x2="0.0" y2="-50.0" stroke="#763e25" stroke-width="0.80" stroke-linecap="round" opacity="0.45"/><line x1="0.5" y1="-36.8" x2="6.6" y2="-46.7" stroke="#763e25" stroke-width="0.80" stroke-linecap="round" opacity="0.45"/><line x1="7.2" y1="-33.5" x2="13.3" y2="-43.4" stroke="#763e25" stroke-width="0.80" stroke-linecap="round" opacity="0.45"/><line x1="13.8" y1="-30.2" x2="19.9" y2="-40.1" stroke="#763e25" stroke-width="0.80" stroke-linecap="round" opacity="0.45"/><line x1="20.4" y1="-26.9" x2="26.5" y2="-36.7" stroke="#763e25" stroke-width="0.80" stroke-linecap="round" opacity="0.45"/><line x1="27.1" y1="-23.6" x2="33.1" y2="-33.4" stroke="#763e25" stroke-width="0.80" stroke-linecap="round" opacity="0.45"/><line x1="33.7" y1="-20.3" x2="39.8" y2="-30.1" stroke="#763e25" stroke-width="0.80" stroke-linecap="round" opacity="0.45"/><line x1="-46.4" y1="-73.2" x2="46.4" y2="-26.8" stroke="#d99d82" stroke-width="2.20" stroke-linecap="round" opacity="0.9"/><polygon points="-46.4,-73.2 46.4,-26.8 32.7,-4.6 21.9,-3.6 17.2,-12.3 6.5,-11.3 1.8,-20.1 -9.0,-19.1 -13.7,-27.8 -24.5,-26.8 -29.2,-35.5 -39.9,-34.5 -44.6,-43.3 -55.4,-42.3 -60.1,-51.0" fill="#f7fbff" stroke="#b9cbe0" stroke-width="1.20" stroke-linejoin="round"/><line x1="46.4" y1="-26.8" x2="36.4" y2="-33.8" stroke="#6e4024" stroke-width="3.20" stroke-linecap="round" opacity="1.0"/><line x1="46.4" y1="-26.8" x2="56.4" y2="-43.8" stroke="#6e4024" stroke-width="3.20" stroke-linecap="round" opacity="1.0"/><polygon points="-76.4,15.0 -74.0,16.2 -74.0,-43.8 -76.4,-45.0" fill="#6e4024" stroke="#3d2314" stroke-width="1.00" stroke-linejoin="round"/><polygon points="-74.0,16.2 -71.6,15.0 -71.6,-45.0 -74.0,-43.8" fill="#4f2e1a" stroke="#2b190e" stroke-width="1.00" stroke-linejoin="round"/><polygon points="-74.0,-46.2 -71.6,-45.0 -74.0,-43.8 -76.4,-45.0" fill="#8b6650" stroke="#4c382c" stroke-width="1.00" stroke-linejoin="round"/><circle cx="-74.0" cy="-47.0" r="2.8" fill="url(#wi-shelter-4-g1)" stroke="#7a6228" stroke-width="1.00" opacity="1.0"/><polygon points="-75.6,-42.2 -94.0,-33.0 -94.0,-13.0 -84.8,-22.8 -75.6,-22.2" fill="#1f8a7e" stroke="#114c45" stroke-width="1.40" stroke-linejoin="round"/><circle cx="-84.8" cy="-30.8" r="2.8" fill="url(#wi-shelter-4-g2)" stroke="#7a6228" stroke-width="1.00" opacity="1.0"/></svg>